<svg width="1440" height="826" viewBox="0 0 1440 826" fill="none" xmlns="http://www.w3.org/2000/svg">
<path d="M1441 112.691C1440.1 113.584 1439.23 114.549 1438.12 114.995C1435.9 115.906 1433.06 115.478 1430.72 116.014C1420.7 118.336 1409.76 125.303 1400.96 130.198C1394.24 133.949 1388.3 139.559 1379.76 137.701C1368.69 135.289 1360.73 124.964 1351 119.711C1335.21 111.154 1321.68 123.034 1306.01 127.268C1303.55 127.929 1301.13 127.804 1298.68 128.286C1296.99 128.608 1298.22 130.466 1295.43 130.466C1294.51 130.466 1288.68 128.179 1287.57 127.822C1280.01 125.339 1272.62 122.57 1265.06 120.069C1249.18 114.817 1232.81 107.903 1218.86 98.8639C1210.5 93.4332 1200.94 88.5563 1191.87 84.126C1186.55 81.5357 1180.74 79.5528 1175.31 77.159C1169.84 74.7473 1166.16 70.2991 1160.88 67.7445C1147.93 61.4921 1134.31 56.24 1121.86 49.0943C1112.46 43.6993 1102.59 39.0368 1092.75 34.3564C1087.46 31.8375 1084.06 27.8359 1079.15 25.067C1073.7 21.9765 1067.16 20.4759 1061.67 17.1353C1055.01 13.0801 1048.47 8.63193 1041.99 4.88045C1028.29 -3.03339 1013.21 0.664499 998.433 2.32587C988.36 3.45131 977.271 9.0964 968.176 13.1873C961.25 16.2957 954.17 18.2965 947.551 22.1015C941.488 25.585 935.752 28.9256 929.075 31.373C917.276 35.6962 906.167 42.7704 894.041 46.111C886.52 48.1832 879.153 50.059 871.728 51.7918C861.386 54.2035 850.623 60.4202 840.78 64.4218C829.556 68.995 817.853 73.0859 807.185 78.5702C795.578 84.5369 783.164 88.8779 770.904 93.5047C760.506 97.4348 749.78 104.259 738.652 105.956C730.633 107.171 722.824 106.706 715.054 109.225C705.844 112.208 697.095 116.639 688.27 120.48C678.504 124.731 667.76 126.196 657.84 130.323C650.818 133.235 643.182 134.771 636.064 137.576C630.654 139.701 626.222 142.81 620.984 145.132C609.415 150.259 596.387 152.099 584.166 155.386C573.652 158.209 563.56 160.745 552.93 162.818C536.795 165.962 519.048 164.961 503.507 160.352C492.974 157.226 484.417 152.582 474.555 148.133C465.806 144.185 458.113 135.557 448.078 135.11C435.953 134.574 424.882 134.896 413.754 139.398C404.238 143.256 399.825 146.579 390.136 142.524C362.565 131.019 356.944 123.302 329.412 138.237C324.769 140.755 319.627 144.328 314.869 146.329C309.151 148.741 305.429 145.579 300.249 143.131C288.987 137.844 279.144 131.931 268.592 125.875C249.617 114.977 227.84 106.974 207.867 97.6849C185.842 87.4308 163.893 77.2125 141.886 66.9585C136.15 64.2967 128.936 62.0994 123.928 58.3658C120.033 55.4718 120.59 54.5786 115.544 54.007C103.322 52.5957 90.6017 60.8668 79.2435 64.5111C71.051 67.155 62.5131 69.9954 54.7619 73.6576C45.9171 77.8378 36.938 80.6425 27.7286 84.1796C19.1908 87.4487 10.5378 90.0748 2 93.1474V437.069C38.9142 438.712 75.7708 440.052 112.781 439.998C171.951 439.909 231.006 439.695 290.118 436.997C353.471 434.103 416.958 429.441 480.234 425.207C543.126 421.009 606.134 415.953 669.122 413.524C738.998 410.826 808.605 404.306 878.5 402.305C962.114 399.911 1045.9 399.018 1129.55 398.232C1200.12 397.553 1269.57 392.444 1339.87 387.174C1373.6 384.655 1407.29 381.708 1440.94 378.438V112.691H1441Z" fill="#BAD8D8"/>
<path d="M1312.16 131.153C1305.46 129.461 1300.44 130.448 1298.77 131.153H1297.1C1297.66 130.448 1299.77 129.038 1303.79 129.038C1307.81 129.038 1316.62 124.807 1320.52 122.692C1337.93 114.23 1346.74 117.756 1348.97 120.576L1342.28 119.519L1338.93 120.576V122.692L1332.24 123.749H1325.54V126.922H1320.52V129.038H1317.18C1318.29 130.448 1318.85 132.846 1312.16 131.153Z" fill="#EAF4FF"/>
<path d="M1410.88 126.922L1392.47 136.442C1388.38 138.557 1377.41 139.615 1380.76 139.615C1384.11 139.615 1394.15 137.499 1409.21 134.326C1424.27 131.153 1432.63 126.922 1427.61 126.922C1423.6 126.922 1421.48 125.512 1420.92 124.807L1439.32 119.519C1439.32 118.461 1438.32 116.557 1434.3 117.403C1430.29 118.249 1427.05 119.166 1425.94 119.519L1417.57 122.692L1410.88 126.922Z" fill="#EAF4FF"/>
<path d="M1827 406.796C1818.44 402.811 1809.85 398.881 1801.18 395.175C1781.78 386.898 1764.69 379.541 1743.49 376.057C1727.15 373.354 1712.13 367 1696.05 363.21C1687.44 361.176 1678.7 359.169 1670.35 357.386C1660.08 355.212 1650.04 362.764 1641.12 366.554C1628.78 371.794 1617.08 378.51 1604.61 383.665C1593.3 388.347 1584.39 394.673 1573.61 400.108C1565.23 404.344 1556.85 407.437 1548.85 412.425C1531.88 423.015 1512.37 429.871 1494.63 439.123C1455.75 459.383 1417.14 480.34 1377.93 500.126C1359.28 509.546 1341.18 520.052 1322.08 528.747C1303.93 536.996 1283.88 544.297 1266.8 554.274C1248.64 564.864 1230.55 574.367 1210.65 581.808C1194.72 587.771 1178.85 595.324 1162.41 599.755C1137.57 606.471 1111.3 621.018 1084.98 612.49C1074.79 609.174 1063.27 607.697 1053.65 603.238C1045.62 599.532 1037.63 596.104 1029.45 592.648C1011.92 585.235 993.15 581.919 975.057 576.039C962.324 571.887 948.14 568.347 936.621 561.325C931.557 558.231 929.751 554.218 924.184 551.682C919.179 549.397 913.583 546.861 908.43 544.966C895.786 540.284 884.148 533.791 871.504 529.081C860.666 525.04 849.443 522.421 838.516 518.519C829.425 515.286 820.215 511.469 810.917 508.849C804.255 506.982 797.296 507.706 790.307 507.651C772.984 507.539 756.431 515.119 740.085 520.331C727.145 524.455 714.382 530.419 702.004 535.853C694.749 539.03 686.961 541.009 679.617 543.963C672.273 546.917 666.114 551.849 658.948 555.054C628.151 568.765 596.881 580.442 565.403 592.704C558.178 595.519 551.574 599.114 544.586 602.291C538.811 604.91 532.237 605.774 526.256 607.92C517.165 611.153 508.192 615.082 499.072 617.646C490.81 619.959 482.489 621.046 475.145 617.646C469.223 614.887 464.07 611.404 457.348 609.592C438.515 604.52 421.37 595.909 402.773 590.168C391.846 586.768 380.86 584.483 370.052 581.306C361.849 578.882 353.528 574.005 345.474 570.967C330.253 565.226 313.048 559.123 300.049 549.62C291.905 543.656 285.035 539.838 275.5 535.825C272.361 534.488 269.37 532.147 266.083 531.227C262.826 530.307 259.806 531.227 256.578 530.809C254.091 530.502 252.047 529.025 249.767 528.635C247.546 528.273 246.362 529.666 244.467 529.499C239.758 529.081 235.465 528.078 230.667 528.106C222.85 528.162 216.335 528.44 209.051 526.211C201.026 523.758 193.208 521.334 185.272 518.547C175.589 515.147 168.6 509.657 159.421 505.7C149.027 501.213 138.959 496.113 129.69 489.731C124.449 486.136 118.911 485.077 113.314 482.263C108.369 479.782 104.401 476.466 99.1599 474.432C73.8119 464.566 47.9309 454.506 21.5761 446.982C8.72446 443.303 -3.89032 438.9 -16.357 434.19C-26.8397 430.233 -37.5593 424.158 -48.3677 421.287C-58.6135 418.556 -68.7113 418.027 -78.8387 415.017C-85.6494 413.011 -92.2233 408.775 -99.2118 407.911C-106.378 407.019 -114.225 410.112 -120.947 411.812C-127.965 413.596 -134.243 416.968 -141.261 418.863C-161.072 424.269 -182.215 429.676 -201.699 436.615C-216.269 441.798 -230.571 447.456 -244.548 454.005C-250.856 456.959 -257.074 460.219 -263.47 463.034C-270.548 466.155 -278.069 466.573 -285.294 469.193C-294.77 472.648 -303.713 477.386 -313.189 480.814C-322.132 484.074 -331.223 485.523 -339.751 489.759C-355.238 497.479 -371.999 502.133 -387.397 510.103C-389.588 511.246 -391.75 512.388 -393.941 513.531V997.126C-370.755 998.018 -347.539 998.324 -324.294 998.074C-208.658 996.736 -94.0889 980.071 21.4873 978.705C85.3015 977.953 148.908 987.344 212.278 992.751C267.238 997.433 322.376 1000.39 377.218 1006.27C455.927 1014.71 535.791 1025.11 615.092 1026.5C689.211 1027.78 762.886 1023.43 836.709 1017.72C906.239 1012.34 975.768 1007.41 1045.18 1000.72C1138.69 991.72 1232.03 980.099 1325.4 969.732C1411.18 960.201 1496.94 949.639 1582.11 935.983C1663.84 922.885 1745.15 907.586 1827 895.073V406.796Z" fill="#588380"/>
<path d="M974.161 21.1534C976.364 18.8325 980.296 16.6177 985.142 14.5745C998.488 8.94712 998.307 0.945167 984.201 4.23036L975.835 7.40343L965.795 11.6342L954.082 15.865C950.736 17.2752 944.043 20.3073 944.043 21.1534C944.043 21.9996 931.772 27.147 925.637 29.615C920.06 32.4355 908.57 38.2881 907.231 39.1342C905.558 40.1919 892.172 45.4804 890.499 45.4804C889.16 45.4804 877.67 49.006 872.093 50.7688L855.674 55.4864C854.353 55.8659 853.083 56.3868 851.87 57.0332C843.503 61.4936 828.538 69.0219 823.568 69.8073C818.214 70.6534 799.027 80.0316 790.103 84.615C783.052 89.5967 773.592 87.224 754.965 97.3073C739.871 105.478 720.218 108.945 709.686 108.967C708.645 108.969 707.616 109.148 706.653 109.545L701.611 111.63C694.873 114.415 696.449 119.346 703.094 116.346C714.807 111.057 721.5 114.23 736.559 116.346C751.618 118.461 756.638 113.173 775.044 106.827C777.644 105.93 792.652 96.2496 795.402 96.2496H801.816H852.014C885.479 96.2496 870.42 88.8457 887.152 78.2688C892.366 74.973 895.888 71.0354 898.211 67.1433C902.968 59.175 908.761 50.0049 917.702 47.5182L944.043 40.1919C950.736 37.3714 966.13 29.615 974.161 21.1534Z" fill="#CEEBEB"/>
<path d="M379.08 158.295L359.645 161.366C357.844 161.65 356.03 160.942 354.899 159.512C353.942 158.302 352.484 157.596 350.941 157.596H339.816C338.823 157.596 337.835 157.678 336.848 157.795C333.769 158.163 327.737 158.653 319.919 158.653C314.732 158.653 315.337 143.448 319.939 141.056C322.436 139.758 324.748 138.52 326.611 137.5C348.364 124.807 365.096 138.557 371.789 142.788C376.303 145.641 386.683 145.688 393.506 145.21C395.747 145.053 397.907 144.359 399.958 143.443C411.998 138.066 423.994 136.73 433.068 136.981C438.108 137.121 439.431 142.969 435.373 145.961C432.027 148.429 424.664 154.211 421.987 157.596C419.632 160.573 407.612 161.586 399.817 161.787C397.875 161.837 395.946 161.529 394.093 160.943L387.771 158.945C384.964 158.058 381.988 157.835 379.08 158.295Z" fill="#CEEBEB"/>
<path d="M92.3556 59.2304C90.3688 57.9745 98.089 57.4176 105.394 57.2139C107.436 57.157 107.741 55.4209 105.742 54.9996C100.388 53.3073 87.8939 57.115 82.3163 59.2304C74.9522 63.2164 69.8933 65.0106 60.9535 67.1964C59.5853 67.5309 58.2486 68.0065 56.9817 68.622C44.6037 74.6355 36.846 78.0244 22.0791 82.4996L5.87062 88.4762C3.54486 89.3338 2 91.55 2 94.0288C2 96.6102 3.86844 98.9566 6.22984 97.9139C7.03343 97.559 7.87367 97.0265 8.69302 96.2496C12.0395 93.0765 25.4256 86.7304 27.0988 86.7304C28.7721 86.7304 40.4849 86.7304 45.5047 78.2688C50.5244 69.8073 65.5837 77.2111 67.257 70.865C68.9302 64.5188 95.7021 61.3458 92.3556 59.2304Z" fill="#CEEBEB"/>
<path d="M1850 323.627C1842.03 319.563 1833.68 315.902 1825.64 312.075C1817.76 308.319 1806.97 306.382 1798.4 304.799C1786 302.531 1773.59 300.925 1761.14 298.988C1738.46 295.445 1721.67 278.885 1700.82 271.231C1689.28 267.003 1678.12 261.286 1667.32 257.034C1665.29 260.105 1662.74 258.144 1659.74 258.711C1658.04 259.042 1656.7 260.388 1654.99 261.003C1645.75 264.286 1635.23 266.53 1625.67 269.129C1615.67 271.845 1606.09 275.814 1596.19 278.885C1584.94 282.358 1575.46 288.31 1564.52 291.759C1557.21 294.074 1550.65 299.39 1543.35 302.224C1538.52 304.09 1533.79 306.335 1529.21 308.673C1519.88 313.445 1510.89 318.028 1501.01 321.666C1488.43 326.296 1473.97 330.595 1460.13 328.327C1452.21 327.028 1444.43 321.052 1437.23 317.815C1429.82 314.484 1421.97 311.768 1414.69 308.177C1407.76 304.752 1401.47 300.453 1394.12 297.83C1387.29 295.397 1384.49 295.87 1377.78 297.83C1369.58 300.24 1361.24 302.933 1353.36 306.429C1347.32 309.099 1341.11 310.351 1335.07 312.878C1330.41 314.839 1326.45 317.65 1321.5 319.02C1299.54 325.138 1279.46 335.958 1257.12 341.225C1250.14 342.879 1244.2 344.651 1237.41 341.769C1231.52 339.265 1226.69 335.792 1221.39 332.391C1208.27 324.004 1194.95 315.925 1180.19 310.303C1159.49 302.413 1139.17 293.248 1117.62 287.555C1100.47 283.019 1084.02 273.05 1068.18 265.42C1049.73 256.538 1034.18 242.955 1016.65 232.821C1008.88 228.309 1000.46 223.419 992.165 219.804C983.425 216.001 975.774 211.229 967.38 206.883C955.421 200.67 942.497 194.977 930.166 189.426C920.237 184.961 908.947 182.173 899.637 176.598C891.194 171.543 882.8 168.189 873.54 164.645C862.992 160.606 851.008 157.795 841.005 152.716C828.502 146.361 817.731 143.763 803.692 144.046C798.492 144.141 792.748 144.944 787.796 146.621C784.429 147.755 781.705 149.527 778.214 150.542C774.104 151.724 771.182 152.574 767.245 154.393C751.374 161.74 734.686 167.338 718.765 174.732C708.49 179.504 698.734 185.173 688.88 190.607C680.511 195.237 671.053 197.717 662.783 202.536C647.506 211.418 632.526 220.017 616.284 227.529C600.487 234.805 584.615 241.939 568.72 249.12C542.003 261.192 517.169 275.271 490.75 287.625C479.905 292.704 470.15 300.925 459.033 304.894C452.273 307.303 441.329 307.563 433.505 306.594C424.616 305.484 414.861 301.421 406.294 297.334C401.837 295.208 396.91 293.389 392.676 290.885C388.838 288.618 386.04 285.499 381.311 284.767C370.887 283.161 359.448 287.2 350.014 290.838C337.808 295.563 326.765 302.248 315.697 308.532C307.576 313.138 299.727 316.776 290.987 320.083C285.663 322.091 281.603 325.445 276.353 327.595C266.672 331.564 257.387 337.21 247.335 340.706C236.762 344.391 226.19 347.32 215.419 350.391C211.136 351.62 206.654 353.013 201.925 352.139C197.072 351.218 195.017 347.391 190.61 345.974C187.465 344.958 184.593 346.163 181.473 345.643C178.948 345.241 177.19 343.635 174.664 343.233C172.262 342.855 170.331 343.47 167.855 342.879C165.156 342.218 163.968 341.273 161.046 341.155C155.772 340.918 152.529 339.903 147.527 338.91C144.605 338.32 141.387 339.099 138.316 338.556C135.568 338.06 133.389 336.902 130.393 336.784C99.9137 335.556 72.7272 326.839 45.8378 313.138C41.1582 310.752 37.7166 306.807 33.2845 304.256C30.4124 302.602 27.1936 301.705 24.2719 300.145C17.3886 296.508 11.5452 291.287 4.83529 287.531C0.972727 285.358 -3.01364 283.302 -7 281.295V579.697C24.3957 578.847 56.5094 581.233 87.7318 583.666C129.23 586.879 170.183 592.69 211.829 594.296C241.64 595.43 271.302 595.832 301.039 598.099C326.418 600.037 351.748 602.541 377.176 604.029C433.926 607.336 490.775 611.21 547.574 613.1C613.956 615.297 680.56 615.533 746.992 616.1C828.551 616.809 910.16 617.919 991.62 622.596C1058.6 626.423 1125.27 633.345 1191.83 641.424C1251.53 648.652 1311.07 655.952 1371.34 655.999C1438.39 656.07 1505.02 651.723 1571.62 644.495C1646.99 636.297 1721.79 623.258 1796.52 610.856C1814.35 607.903 1832.17 604.832 1850 601.643V323.627Z" fill="#9BBFBE"/>
<path d="M784.499 176.48C789.946 172.039 793.883 166.086 799.182 161.291C805.892 155.244 815.003 149.858 824.511 146.291C817.999 144.59 811.339 143.857 803.713 144.023C798.513 144.117 792.769 144.92 787.817 146.598C784.449 147.732 781.726 149.503 778.235 150.519C774.124 151.7 771.203 152.551 767.266 154.37C751.395 161.716 734.707 167.315 718.786 174.709C708.51 179.481 698.755 185.15 688.901 190.583C680.532 195.213 671.073 197.694 662.804 202.513C647.527 211.395 632.547 219.994 616.304 227.506C600.507 234.781 584.636 241.916 568.74 249.097C542.024 261.168 517.19 275.247 490.771 287.602C479.926 292.681 470.171 300.902 459.053 304.87C457.073 305.579 454.696 306.075 452.195 306.429C452.74 306.477 453.334 306.5 454.027 306.5C460.49 306.382 464.204 308.39 469.923 309.76C478.441 311.768 482.65 309.004 490.821 305.98C500.725 302.295 510.43 298.398 520.186 294.523C526.995 291.83 533.606 291.925 540.316 288.641C556.955 280.515 573.346 264.239 592.559 263.129C595.778 262.94 599.443 263.861 602.538 263.011C605.633 262.16 609.867 259.656 612.962 258.404C618.136 256.325 621.529 252.38 626.53 250.065C629.848 248.53 633.265 248.057 636.682 246.829C641.782 244.986 646.165 241.774 651.191 239.719C657.282 237.215 664.512 236.86 669.86 232.962C673.153 230.553 675.703 227.128 678.997 224.624C686.202 219.167 692.441 214.371 700.463 210.119C719.38 200.032 741.342 198.52 761.15 190.134C769.915 186.355 777.219 182.41 784.499 176.48Z" fill="#C3EBE8"/>
<path d="M350.042 290.791C337.836 295.516 326.793 302.201 315.725 308.484C307.604 313.091 299.755 316.729 291.014 320.036C285.691 322.044 281.63 325.398 276.381 327.548C266.7 331.517 257.415 337.163 247.363 340.659C237.533 344.084 227.678 346.871 217.675 349.706C220.622 349.21 223.42 348.431 224.608 348.123C228.446 347.155 232.383 348.525 236.122 347.746C240.207 346.919 244.49 345.454 248.526 344.415C253.8 343.045 258.158 339.95 263.159 338.863C270.018 337.375 278.436 338.793 284.948 335.816C287.944 334.446 289.628 333.123 292.748 331.942C295.793 330.808 298.888 330.005 301.884 328.753C309.56 325.54 314.908 323.792 320.603 317.863C324.218 314.107 327.659 311.13 332.314 308.626C336.672 306.288 342.788 304.445 346.799 301.658C351.454 298.421 353.905 292.303 358.659 289.515C363.14 286.893 368.984 285.594 374.059 284.437C365.74 284.98 357.297 287.98 350.042 290.791Z" fill="#C3EBE8"/>
<path d="M1373.74 315.051C1381.02 308.98 1388.25 303.098 1397.36 299.98C1397.73 299.862 1398.1 299.743 1398.5 299.625C1397.09 298.987 1395.65 298.373 1394.16 297.854C1387.33 295.42 1384.53 295.893 1377.82 297.854C1369.63 300.263 1361.28 302.956 1353.41 306.452C1347.37 309.122 1341.15 310.374 1335.11 312.901C1330.46 314.862 1326.49 317.673 1321.54 319.043C1299.58 325.162 1279.5 335.981 1257.17 341.249C1254.49 341.886 1251.99 342.524 1249.52 342.926C1253.92 347.249 1256.05 349.257 1264.17 349.965C1279.97 351.359 1294.55 344.461 1309.11 339.524C1311.96 338.556 1316.02 336.831 1319.09 336.642C1322.98 336.406 1326.92 338.863 1330.83 339.123C1338.11 339.595 1343.03 336.406 1348.75 332.508C1353.85 329.036 1359.47 326.484 1364.75 323.248C1368.76 320.791 1370.17 318.027 1373.74 315.051Z" fill="#C3EBE8"/>
<path d="M-413.905 524.059C-405.833 519.163 -397.382 514.739 -389.278 510.1C-381.3 505.59 -370.389 503.228 -361.717 501.338C-349.167 498.589 -336.616 496.656 -324.003 494.294C-301.046 489.999 -284.05 469.983 -262.953 460.749C-251.286 455.637 -239.997 448.722 -229.055 443.568C-226.973 447.262 -224.419 444.9 -221.392 445.587C-219.658 445.973 -218.333 447.606 -216.599 448.379C-207.265 452.373 -196.607 455.079 -186.957 458.214C-176.835 461.479 -167.122 466.289 -157.126 469.983C-145.774 474.193 -136.156 481.365 -125.088 485.575C-117.678 488.366 -111.056 494.809 -103.677 498.202C-98.7889 500.479 -94.0273 503.142 -89.3603 506.02C-79.9317 511.775 -70.8185 517.359 -60.8223 521.74C-48.1142 527.323 -33.4826 532.521 -19.4816 529.815C-11.472 528.225 -3.58862 521.01 3.69568 517.101C11.1692 513.064 19.1157 509.799 26.4946 505.461C33.5266 501.338 39.8964 496.098 47.3068 492.962C54.2442 490.042 57.0508 490.6 63.8305 492.962C72.1239 495.883 80.5434 499.104 88.5214 503.357C94.639 506.578 100.914 508.081 107.032 511.131C111.73 513.493 115.767 516.886 120.749 518.561C142.98 525.949 163.288 539.049 185.898 545.406C192.961 547.382 198.984 549.529 205.827 546.05C211.787 543.001 216.674 538.834 222.035 534.711C235.311 524.575 248.807 514.825 263.723 507.995C284.661 498.46 305.221 487.379 327.042 480.506C344.418 475.009 361.036 462.982 377.086 453.748C395.754 443.01 411.49 426.602 429.243 414.318C437.127 408.863 445.641 402.936 454.029 398.598C462.89 394.002 470.615 388.247 479.098 382.964C491.207 375.447 504.262 368.575 516.749 361.874C526.777 356.505 538.224 353.112 547.653 346.369C556.198 340.27 564.681 336.189 574.078 331.894C584.768 327.041 596.876 323.605 606.999 317.505C619.644 309.817 630.555 306.682 644.745 307.025C650.011 307.154 655.845 308.099 660.827 310.161C664.233 311.535 666.976 313.683 670.508 314.885C674.67 316.303 677.634 317.334 681.608 319.567C697.658 328.458 714.56 335.202 730.643 344.178C741.049 349.934 750.919 356.806 760.884 363.378C769.366 368.961 778.921 371.968 787.277 377.766C802.729 388.504 817.896 398.899 834.325 407.961C850.313 416.766 866.364 425.4 882.446 434.076C909.502 448.679 934.603 465.688 961.343 480.635C972.317 486.777 982.187 496.699 993.445 501.51C1000.29 504.43 1011.36 504.731 1019.27 503.571C1028.26 502.24 1038.13 497.3 1046.8 492.404C1051.31 489.827 1056.29 487.636 1060.58 484.63C1064.46 481.924 1067.3 478.101 1072.06 477.242C1082.62 475.309 1094.19 480.163 1103.72 484.587C1116.08 490.299 1127.24 498.374 1138.44 505.977C1146.67 511.517 1154.58 515.941 1163.44 519.936C1168.84 522.341 1172.93 526.422 1178.26 529.042C1188.04 533.852 1197.47 540.681 1207.62 544.891C1218.31 549.315 1229 552.88 1239.91 556.573C1244.26 558.034 1248.77 559.752 1253.57 558.678C1258.49 557.561 1260.54 552.923 1265.01 551.205C1268.2 550.002 1271.1 551.419 1274.25 550.818C1276.81 550.302 1278.57 548.413 1281.16 547.94C1283.59 547.511 1285.54 548.241 1288.06 547.511C1290.81 546.738 1291.97 545.578 1294.97 545.406C1300.3 545.105 1303.58 543.903 1308.62 542.7C1311.59 542.013 1314.84 542.915 1317.96 542.271C1320.73 541.669 1322.94 540.295 1325.97 540.123C1356.81 538.62 1384.31 528.097 1411.52 511.56C1416.25 508.683 1419.72 503.915 1424.23 500.822C1427.13 498.804 1430.38 497.73 1433.37 495.84C1440.34 491.416 1446.24 485.145 1453.02 480.592C1456.93 477.972 1460.93 475.481 1465 473.033V833.739C1433.21 832.708 1400.73 835.586 1369.17 838.55C1327.2 842.458 1285.76 849.46 1243.6 851.392C1213.42 852.767 1183.44 853.239 1153.32 855.988C1127.62 858.308 1102.02 861.357 1076.28 863.161C1018.86 867.155 961.343 871.837 903.857 874.114C836.69 876.777 769.303 877.034 702.073 877.765C619.549 878.624 536.963 879.955 454.533 885.625C386.767 890.263 319.285 898.639 251.961 908.389C191.574 917.108 131.313 925.956 70.3264 925.999C2.49738 926.085 -64.9217 920.845 -132.341 912.083C-208.589 902.161 -284.302 886.398 -359.888 871.408C-377.925 867.843 -395.963 864.149 -414 860.283V524.059H-413.905Z" fill="#81AAA8"/>
<path d="M1660.02 406.22C1669.94 396.021 1679.3 385.626 1689.49 375.705C1683.03 374.2 1676.57 372.751 1670.33 371.413C1660.05 369.239 1650.01 376.792 1641.1 380.582C1628.75 385.821 1617.05 392.537 1604.59 397.693C1593.28 402.375 1584.36 408.701 1573.58 414.135C1565.2 418.371 1556.82 421.464 1548.83 426.453C1531.86 437.043 1512.35 443.898 1494.61 453.15C1455.73 473.41 1417.11 494.367 1377.91 514.154C1359.25 523.573 1341.16 534.079 1322.06 542.774C1303.91 551.023 1283.86 558.325 1266.77 568.301C1248.62 578.891 1230.53 588.394 1210.63 595.835C1194.7 601.799 1178.82 609.351 1162.39 613.782C1149.21 617.349 1135.65 623.062 1121.91 626.434C1123.06 626.797 1124.37 628.357 1124.96 628.496C1130.08 629.528 1135.56 628.023 1140.65 628.942C1145.66 629.834 1149.75 633.401 1154.04 635.798C1163.46 641.009 1169.05 637.052 1178.5 633.039C1196.62 625.347 1212.2 613.197 1229.55 605.45C1262.48 590.791 1304.47 594.999 1328.99 564.985C1354.45 533.828 1398.58 539.681 1433.28 526.945C1446.1 522.235 1454.22 513.54 1465.08 505.877C1478.88 496.123 1491.68 484.92 1506.13 476.002C1522.89 465.663 1541.28 459.504 1560.29 453.986C1583.83 447.131 1605.33 436.903 1627.86 427.651C1641.01 422.217 1650.34 416.169 1660.02 406.22Z" fill="#699597"/>
<path d="M387.618 613.696C391.201 613.696 395.021 613.39 398.604 613.641C401.595 613.836 402.986 615.173 405.178 615.675C410.123 616.818 413.825 615.703 418.178 613.111C419.362 612.415 420.547 611.662 421.701 610.938C415.453 608.513 409.175 606.172 402.72 604.166C391.793 600.766 380.807 598.48 369.999 595.303C361.796 592.879 353.475 588.002 345.42 584.964C330.2 579.224 312.995 573.12 299.995 563.617C291.852 557.654 284.982 553.836 275.447 549.823C272.308 548.485 269.317 546.144 266.03 545.224C262.773 544.305 259.753 545.225 256.525 544.806C254.037 544.5 251.994 543.023 249.714 542.633C247.493 542.27 246.309 543.664 244.413 543.497C239.705 543.079 235.411 542.075 230.614 542.103C222.797 542.159 216.282 542.438 208.997 540.208C206.362 539.4 203.756 538.592 201.15 537.756C201.742 540.097 201.861 542.911 203.519 544.751C205.651 547.12 208.346 548.29 211.603 550.38C216.963 553.836 218.532 555.062 225.314 554.923C231.295 554.783 234.612 555.285 239.498 556.873C249.744 560.162 258.183 562.029 262.003 572.73C264.757 580.422 265.379 585.271 271.479 590.65C273.345 592.294 274.44 594.245 276.158 595.917C279.741 599.372 283.383 600.989 287.825 603.497C293.54 606.729 296.324 608.513 303.43 608.68C308.139 608.792 312.847 608.569 317.555 608.624C324.574 608.708 330.289 607.788 336.803 605.392C342.815 603.19 343.881 603.441 348.145 607.928C356.584 616.818 359.901 617.264 371.894 614.31C376.928 613.055 382.554 613.696 387.618 613.696Z" fill="#699597"/>
<path d="M652.219 596.337C662.347 598.176 671.378 602.412 681.683 599.263C690.863 596.448 698.503 590.373 706.084 584.966C713.753 579.504 722.341 571.757 730.869 567.8C737.414 564.762 744.52 565.375 751.154 562.672C763.443 557.656 774.162 548.961 784.882 541.576C792.877 536.058 799.836 528.728 807.298 522.124C801.761 521.26 796.046 521.734 790.301 521.678C772.978 521.566 756.425 529.147 740.079 534.358C727.138 538.482 714.375 544.446 701.997 549.88C694.742 553.057 686.954 555.036 679.611 557.99C672.267 560.944 666.107 565.877 658.941 569.081C628.145 582.793 596.874 594.469 565.397 606.731C558.171 609.546 551.568 613.141 544.579 616.318C538.805 618.938 532.231 619.801 526.249 621.947C517.158 625.18 508.186 629.109 499.065 631.673C495.926 632.565 492.758 633.262 489.649 633.596C490.122 634.349 490.655 635.045 491.396 635.575C500.457 641.929 526.486 630.865 535.163 627.159C537.383 626.211 539.101 624.539 541.529 624.344C543.365 624.205 543.632 626.239 545.704 626.629C552.012 627.855 558.852 625.375 564.864 623.926C580.143 620.247 594.476 614.98 608.838 609.295C624.206 603.22 634.63 593.132 652.219 596.337Z" fill="#699597"/>
<path d="M1132 828.429V677.137C1129.45 676.775 1126.91 676.412 1124.36 676.029C1117.24 674.963 1109.98 675.4 1102.83 674.121C1097.12 673.097 1090.86 670.806 1085.45 668.439C1081.37 666.649 1078.02 662.694 1073.93 661.287C1064.5 658.047 1053.61 661.724 1044.1 663.568C1037.95 664.762 1032.62 668.066 1026.54 669.505C1020.1 671.019 1014.52 673.833 1008.24 675.773C997.804 679.002 987.933 682.722 977.826 687.06C973.811 688.787 969.471 689.661 965.613 691.74C963.261 693.008 961.371 694.777 958.872 695.886C956.864 696.781 954.699 697.293 952.672 698.231C947.79 700.501 942.092 706.534 937.162 703.219C932.083 699.808 926.434 697.9 920.579 696.216C916.613 695.076 912.597 693.776 908.73 692.219C905.62 690.972 902.727 688.83 899.567 687.753C898.003 687.22 897.137 687.178 895.798 686.368C895.296 686.059 895.099 685.11 894.588 684.779C893.741 684.236 890.415 683.287 889.51 683.277C887.344 683.277 883.526 685.536 881.312 686.314C878.655 687.242 876.548 686.986 873.862 687.551C869.364 688.489 865.329 689.576 860.999 690.684C858.362 691.356 855.527 692.518 852.949 693.253C850.193 694.031 847.467 694.745 844.83 695.822C837.862 698.689 830.875 701.279 823.818 703.848C819.173 705.532 814.213 708.442 809.863 710.926C807.167 712.471 804.234 713.26 801.537 714.848C794.806 718.824 787.002 721.659 780.664 726.242C774.946 730.378 767.457 733.629 761.109 736.954C756.769 739.225 751.927 741.559 747.272 742.817C738.237 745.258 728.77 740.589 721.241 736.219C718.732 734.759 717.521 733.235 714.805 732.851C712.148 732.478 710.376 733.373 708.005 734.023C703.113 735.377 697.986 735.665 693.115 736.965C688.076 738.308 683.244 738.894 678.225 740.589C675.991 741.335 673.766 742.806 671.454 743.233C669.426 743.606 666.75 743.158 664.683 743.158C659.467 743.158 654.733 742.923 649.793 741.399C645.138 739.971 641.506 735.878 637.038 734.173C626.341 730.09 614.334 735.452 603.745 739.076C592.299 742.987 581.385 748.583 570.235 753.412C557.697 758.848 545.366 764.657 533.034 770.604C523.813 775.06 514.67 779.931 505.242 783.875C498.166 786.838 490.687 791.219 483.217 792.711C477.106 793.926 471.614 796.164 465.69 798.147C463.338 798.936 460.533 801.355 458.053 800.119L439.797 828.429H1132Z" fill="#1A5C5C"/>
<path d="M1122.2 831V807.193C1104.4 801.115 1086.2 797.253 1068.01 792.749C1060.74 790.955 1053.61 789.454 1046.28 788.005C1040.57 786.871 1034.72 785.265 1029.61 782.211C1023.34 778.463 1018.04 769.72 1018.66 761.878C1019.26 754.205 1024.66 747.75 1024.98 740.15C1025.17 735.794 1022.44 733.569 1019.26 731.385C1018.01 730.525 1016.38 729.811 1015.91 728.089C1014.99 724.814 1017.98 721.371 1019.36 718.842C1020.28 717.152 1020.94 715.367 1021.92 713.73C1025.6 707.631 1031.88 702.761 1036.9 697.985C1042.31 692.841 1047.44 687.393 1052.92 682.313C1057.74 677.831 1062.18 673.055 1066.77 668.289C1066.9 668.153 1067.02 668.027 1067.14 667.901C1066.17 667.292 1065.16 666.767 1064.11 666.41C1054.68 663.219 1043.8 666.841 1034.28 668.657C1028.13 669.832 1022.81 673.086 1016.72 674.503C1010.29 675.994 1004.71 678.765 998.42 680.676C987.988 683.856 978.117 687.519 968.01 691.792C963.994 693.492 959.654 694.353 955.796 696.4C953.444 697.649 951.555 699.391 949.055 700.483C947.047 701.365 944.882 701.868 942.855 702.792C942.589 702.908 942.324 703.044 942.058 703.191C939.096 706.025 935.976 708.649 932.718 710.864C926.184 715.325 919.511 719.503 913.006 724.027C905.487 729.265 899.385 736.277 891.414 740.707C886.483 743.446 881.819 746.69 876.908 749.45C871.042 752.746 865.128 755.685 860.207 760.535C853.623 767.022 847.698 774.254 841.203 780.836C836.981 785.118 832.1 788.341 827.268 791.784C818.027 798.365 808.835 805.251 799.21 811.171C793.984 814.383 790.599 811.885 785.225 811.119C784.408 811.003 780.905 811.329 781.358 809.355C781.584 808.379 783.533 807.907 784.153 807.476C785.225 806.721 786.2 805.535 786.859 804.348C788.256 801.84 789.674 800.097 791.642 798.008C794.063 795.447 797.242 792.582 799.131 789.579C800.017 788.173 800.214 786.693 800.174 785.045C800.135 783.155 800.804 782.746 801.129 781.245C801.611 778.999 801.513 777.361 802.654 775.157C803.432 773.666 804.013 772.144 804.672 770.654C807.939 763.338 817.062 760.21 823.233 756.168C827.12 753.628 830.693 751.34 833.773 747.792C836.794 744.307 839.383 740.129 842.581 736.854C843.713 735.7 845.1 734.828 846.212 733.642C848.24 731.469 849.933 728.509 851.655 726.053C854.528 721.928 857.254 718.002 860.414 714.118C864.498 709.09 868.09 703.747 872.391 698.877C875.432 695.434 878.512 692.012 881.317 688.349C880.618 688.181 879.998 688.055 879.683 688.055C877.518 688.055 873.699 690.28 871.485 691.046C868.828 691.96 866.722 691.708 864.035 692.264C859.538 693.188 855.503 694.258 851.173 695.35C848.535 696.011 845.701 697.155 843.122 697.88C840.367 698.646 837.641 699.349 835.003 700.409C828.035 703.233 821.048 705.784 813.992 708.313C809.347 709.972 804.387 712.838 800.037 715.283C797.34 716.805 794.407 717.582 791.711 719.146C784.979 723.061 777.175 725.854 770.837 730.367C765.119 734.44 757.63 737.641 751.282 740.916C746.942 743.152 742.1 745.451 737.445 746.69C736.796 746.858 736.146 746.994 735.487 747.089C733.332 749.461 731.048 751.697 728.706 753.922C721.984 760.293 715.332 766.759 708.974 773.53C705.392 777.351 702.292 781.633 699.084 785.811C696.987 788.53 690.187 795.143 686.408 793.022C684.912 792.183 685.148 790.451 684.016 789.548C682.658 788.446 682.038 789.705 680.857 790.556C676.399 793.81 671.823 796.392 667.276 799.457C663.251 802.165 659.078 804.873 655.083 807.403C653.656 808.306 652.79 808.956 651.097 809.355C649.709 809.681 647.977 809.681 646.678 810.048C645.802 810.29 645.074 811.077 644.149 810.919C643.362 809.208 646.137 807.529 646.963 806.248C647.485 805.44 648.341 804.411 648.794 803.603C649.355 802.595 649.02 802.469 649.424 801.388C650.054 799.719 650.998 797.641 652.091 796.36C653.597 794.586 655.998 793.537 657.602 791.815C660.85 788.32 662.907 783.964 665.879 780.269C667.197 778.631 669.313 777.519 670.455 775.692C671.4 774.181 671.459 772.312 671.99 770.643C673.791 765.007 679.411 760.766 683.751 757.354C687.795 754.174 692.687 750.773 695.688 746.574C697.174 744.485 698.877 742.354 700.904 741.042C702.597 739.951 704.112 738.408 705.618 737.012C705.412 736.97 705.215 736.917 704.998 736.886C702.341 736.518 700.57 737.4 698.198 738.04C693.307 739.373 688.179 739.657 683.308 740.937C678.269 742.26 673.437 742.837 668.418 744.506C666.184 745.241 663.96 746.69 661.647 747.11C661.548 747.131 661.45 747.131 661.352 747.152C658.675 748.716 656.234 750.29 653.065 751.161C651.55 751.571 650.073 751.193 648.548 751.592C646.757 752.064 645.556 753.04 644.031 754.048C637.909 758.1 631.011 759.937 625.076 764.072C617.488 769.363 611.298 776.322 604.114 782.2C602.53 783.491 600.709 783.88 599.105 785.013C598.239 785.622 597.884 786.388 597.127 787.018C595.089 788.708 592.383 790.346 590.08 791.616C587.266 793.169 583.181 795.636 579.934 794.502C578.615 794.041 576.981 791.994 576.529 790.629C575.899 788.75 576.637 787.942 577.139 786.43C578.074 783.628 579.875 781.539 581.715 779.293C584.018 776.469 587.088 774.013 589.903 771.829C592.649 769.699 595.139 766.854 597.983 764.849C603.937 760.661 606.683 753.723 611.525 748.464C612.666 747.225 613.099 747.162 614.447 746.343C615.835 745.504 616.642 744.611 617.882 743.614C619.565 742.26 621.563 741.693 623.324 740.539C624.712 739.625 626.119 738.943 627.556 738.334C627.448 738.292 627.34 738.24 627.222 738.198C616.524 734.178 604.518 739.457 593.928 743.026C582.483 746.879 571.569 752.389 560.418 757.144C547.88 762.498 535.549 768.219 523.218 774.076C513.996 778.463 504.854 783.26 495.426 787.144C488.35 790.062 480.87 794.377 473.401 795.846C467.289 797.043 461.798 799.247 455.873 801.199C453.521 801.976 450.716 804.359 448.236 803.141L430 831H1122.2Z" fill="#398489"/>
<path d="M1440 668.823C1432.72 668.823 1425.44 668.823 1418.19 668.78C1400.26 668.694 1383 671.211 1365.1 669.554C1356.84 668.801 1349.09 669.103 1340.79 668.909C1332.6 668.694 1324.44 667.639 1316.25 667.188C1299.8 666.241 1283.32 664.261 1267.04 662.54C1249.34 660.668 1231.68 658.645 1213.64 660.237C1198.37 661.593 1182.43 662.626 1167.5 665.057C1132.81 670.695 1101.46 682.013 1072.3 695.031C1061.65 699.786 1052.78 705.962 1042.17 710.717C1034.51 714.138 1027.3 717.473 1020.15 721.368C1005.56 729.351 989.884 736.516 975.288 744.456C943.905 761.519 913.533 779.271 881.038 795.388C864.79 803.435 846.689 809.352 829.531 816.475C819.418 820.67 808.766 823.468 797.946 826.136H1439.96V668.823H1440Z" fill="#233531"/>
<path d="M679.915 813.878C670.394 809.941 661.523 805.185 652.619 800.688C643.488 796.062 634 792.124 625.551 786.874C605.111 774.222 585.289 761.118 565.629 747.949C552.826 739.364 537.294 731.682 522.768 724.474C515.912 721.074 510.712 716.814 503.368 713.78C500.054 712.403 496.804 710.94 493.555 709.498C486.471 706.335 478.899 704.097 471.491 701.321C454.3 694.888 432.756 690.885 413.681 687.679C402.308 685.764 390.025 684.301 378.424 683.182C366.563 682.042 354.54 680.708 342.614 679.89C331.338 679.115 320.452 676.749 309.079 676.921C304.075 677.007 300.143 676.426 295.301 675.78C289.322 674.963 283.278 675.823 277.298 675.35C266.737 674.489 252.634 673.005 243.926 668.701C235.964 664.764 227.451 658.76 221.894 653.316C218.059 649.551 215.59 645.247 211.365 641.654C207.661 638.491 203.274 635.5 199.18 632.552C190.276 626.204 180.56 620.567 170.031 615.446C143.515 602.579 115.374 596.747 83.4639 592.874C52.1709 589.087 20.6179 587.581 -11 587V825.347H715.888C703.442 822.27 691.419 818.634 679.915 813.878Z" fill="#233531"/>
</svg>
