<svg width="1440" height="807" viewBox="0 0 1440 807" fill="none" xmlns="http://www.w3.org/2000/svg">
<path d="M1451 112.691C1450.09 113.584 1449.22 114.549 1448.1 114.995C1445.85 115.906 1442.99 115.478 1440.63 116.014C1430.53 118.336 1419.5 125.303 1410.62 130.198C1403.85 133.949 1397.86 139.559 1389.25 137.701C1378.08 135.289 1370.06 124.964 1360.25 119.711C1344.33 111.154 1330.69 123.034 1314.88 127.268C1312.4 127.929 1309.97 127.804 1307.49 128.286C1305.79 128.608 1307.03 130.466 1304.22 130.466C1303.29 130.466 1297.41 128.179 1296.29 127.822C1288.67 125.339 1281.22 122.57 1273.6 120.069C1257.58 114.817 1241.07 107.903 1227.01 98.8639C1218.58 93.4332 1208.94 88.5563 1199.79 84.126C1194.43 81.5357 1188.57 79.5528 1183.09 77.159C1177.58 74.7473 1173.87 70.2991 1168.55 67.7445C1155.49 61.4921 1141.75 56.24 1129.2 49.0943C1119.72 43.6993 1109.77 39.0368 1099.85 34.3564C1094.51 31.8375 1091.08 27.8359 1086.13 25.067C1080.64 21.9765 1074.04 20.4759 1068.51 17.1353C1061.79 13.0801 1055.2 8.63193 1048.66 4.88045C1034.85 -3.03339 1019.64 0.664499 1004.74 2.32587C994.586 3.45131 983.404 9.0964 974.233 13.1873C967.25 16.2957 960.111 18.2964 953.436 22.1015C947.323 25.585 941.539 28.9256 934.806 31.373C922.908 35.6962 911.707 42.7704 899.48 46.111C891.896 48.1832 884.467 50.059 876.98 51.7918C866.553 54.2035 855.7 60.4202 845.775 64.4218C834.458 68.995 822.656 73.0859 811.9 78.5702C800.196 84.5368 787.679 88.8779 775.316 93.5047C764.831 97.4348 754.016 104.259 742.796 105.956C734.709 107.171 726.835 106.706 719 109.225C709.714 112.208 700.892 116.639 691.992 120.48C682.145 124.731 671.312 126.196 661.31 130.323C654.229 133.235 646.529 134.771 639.352 137.576C633.896 139.701 629.427 142.81 624.146 145.132C612.48 150.259 599.344 152.099 587.02 155.386C576.419 158.209 566.243 160.745 555.525 162.818C539.255 165.962 521.359 164.961 505.689 160.352C495.068 157.226 486.44 152.582 476.496 148.133C467.674 144.185 459.916 135.557 449.798 135.11C437.571 134.574 426.409 134.896 415.188 139.398C405.592 143.256 401.142 146.579 391.373 142.524C363.572 131.019 357.904 123.302 330.142 138.237C325.46 140.755 320.276 144.328 315.478 146.329C309.713 148.741 305.959 145.579 300.736 143.131C289.38 137.844 279.455 131.931 268.815 125.875C249.681 114.977 227.724 106.974 207.584 97.6849C185.375 87.4308 163.243 77.2125 141.053 66.9585C135.268 64.2967 127.994 62.0994 122.945 58.3658C119.018 55.4718 119.579 54.5786 114.491 54.007C102.167 52.5957 89.3405 60.8668 77.8876 64.5111C69.6268 67.155 61.0178 69.9954 53.2019 73.6576C44.2833 77.8378 35.2293 80.6425 25.9432 84.1796C17.3342 87.4487 8.60904 90.0748 0 93.1474V437.069C37.222 438.712 74.386 440.052 111.705 439.998C171.368 439.909 230.916 439.695 290.521 436.997C354.402 434.103 418.419 429.441 482.222 425.207C545.639 421.009 609.172 415.953 672.685 413.524C743.144 410.826 813.332 404.306 883.81 402.305C968.12 399.911 1052.6 399.018 1136.95 398.232C1208.11 397.553 1278.14 392.444 1349.03 387.174C1383.04 384.655 1417.01 381.708 1450.94 378.438V112.691H1451Z" fill="#608A8A"/>
<path d="M1321.08 131.153C1314.33 129.461 1309.27 130.448 1307.58 131.153H1305.9C1306.46 130.448 1308.6 129.038 1312.65 129.038C1316.7 129.038 1325.58 124.807 1329.52 122.692C1347.07 114.23 1355.95 117.756 1358.2 120.576L1351.45 119.519L1348.08 120.576V122.692L1341.33 123.749H1334.58V126.922H1329.52V129.038H1326.14C1327.27 130.448 1327.83 132.846 1321.08 131.153Z" fill="#EAF4FF"/>
<path d="M1420.63 126.922L1402.07 136.442C1397.94 138.557 1386.88 139.615 1390.26 139.615C1393.63 139.615 1403.76 137.499 1418.94 134.326C1434.13 131.153 1442.56 126.922 1437.5 126.922C1433.45 126.922 1431.31 125.512 1430.75 124.807L1449.31 119.519C1449.31 118.461 1448.3 116.557 1444.25 117.403C1440.2 118.249 1436.94 119.166 1435.81 119.519L1427.38 122.692L1420.63 126.922Z" fill="#EAF4FF"/>
<path d="M980.268 21.1537C982.488 18.8351 986.447 16.6223 991.326 14.5808C1004.72 8.97492 1004.54 0.962168 990.392 4.2306L981.956 7.40368L971.832 11.6344L960.022 15.8652C956.647 17.2755 949.899 20.3075 949.899 21.1537C949.899 21.9998 937.526 27.1473 931.339 29.6152C925.715 32.4357 914.13 38.2883 912.78 39.1344C911.093 40.1921 897.595 45.4806 895.908 45.4806C894.558 45.4806 882.973 49.0062 877.349 50.7691L860.766 55.4944C859.452 55.8687 858.188 56.3831 856.98 57.0216C848.547 61.4805 833.435 69.0215 828.42 69.8075C823.02 70.6537 803.674 80.0319 794.675 84.6152C787.565 89.597 778.026 87.2242 759.244 97.3075C744.012 105.485 724.175 108.951 713.563 108.967C712.529 108.968 711.507 109.145 710.551 109.537L705.466 111.621C698.711 114.39 700.277 119.33 706.94 116.346C718.751 111.058 725.5 114.231 740.685 116.346C755.87 118.461 760.931 113.173 779.49 106.827C782.089 105.938 797.219 96.2498 799.964 96.2498H806.486H857.102C890.846 96.2498 875.661 88.846 892.534 78.2691C897.777 74.9822 901.323 71.0569 903.666 67.1752C908.473 59.2116 914.298 50.0119 923.265 47.5385L949.899 40.1921C956.647 37.3716 972.17 29.6152 980.268 21.1537Z" fill="#80A3A3"/>
<path d="M380.296 158.284L360.612 161.369C358.804 161.652 356.984 160.943 355.843 159.513C354.876 158.302 353.411 157.596 351.862 157.596H340.609C339.624 157.596 338.643 157.676 337.665 157.793C334.567 158.16 328.473 158.654 320.57 158.654C315.366 158.654 315.965 143.44 320.591 141.056C323.109 139.758 325.44 138.521 327.318 137.5C349.252 124.808 366.124 138.558 372.873 142.788C377.436 145.649 387.943 145.689 394.823 145.207C397.049 145.051 399.194 144.367 401.234 143.462C413.404 138.063 425.532 136.727 434.697 136.982C439.742 137.123 441.06 142.982 436.987 145.961C433.613 148.429 426.189 154.211 423.489 157.596C421.11 160.579 408.945 161.59 401.086 161.788C399.159 161.837 397.246 161.533 395.406 160.957L388.921 158.924C386.134 158.051 383.182 157.831 380.296 158.284Z" fill="#80A3A3"/>
<path d="M91.1091 59.2306C89.1052 57.9744 96.8942 57.4176 104.262 57.214C106.309 57.1574 106.612 55.4188 104.607 54.9998C99.208 53.3075 86.6101 57.1152 80.986 59.2306C73.5524 63.2211 68.4483 65.0148 59.4154 67.2038C58.0553 67.5334 56.726 68.0027 55.4653 68.6102C42.9695 74.6312 35.1466 78.0216 20.2465 82.4998L3.87518 88.4866C1.54788 89.3377 0 91.5518 0 94.0299C0 96.6095 1.86555 98.9525 4.2331 97.928C5.05307 97.5732 5.91177 97.037 6.74884 96.2498C10.1233 93.0768 23.6209 86.7306 25.3081 86.7306C26.9953 86.7306 38.8058 86.7306 43.8674 78.2691C48.9291 69.8075 64.114 77.2114 65.8012 70.8652C67.4884 64.5191 94.4835 61.346 91.1091 59.2306Z" fill="#80A3A3"/>
<path d="M1850 304.627C1842.03 300.563 1833.68 296.902 1825.64 293.075C1817.76 289.319 1806.97 287.382 1798.4 285.799C1786 283.531 1773.59 281.925 1761.14 279.988C1738.46 276.445 1721.67 259.885 1700.82 252.231C1689.28 248.003 1678.12 242.286 1667.32 238.034C1665.29 241.105 1662.74 239.144 1659.74 239.711C1658.04 240.042 1656.7 241.388 1654.99 242.003C1645.75 245.286 1635.23 247.53 1625.67 250.129C1615.67 252.845 1606.09 256.814 1596.19 259.885C1584.94 263.358 1575.46 269.31 1564.52 272.759C1557.21 275.074 1550.65 280.39 1543.35 283.224C1538.52 285.09 1533.79 287.335 1529.21 289.673C1519.88 294.445 1510.89 299.028 1501.01 302.666C1488.43 307.296 1473.97 311.595 1460.13 309.327C1452.21 308.028 1444.43 302.052 1437.23 298.815C1429.82 295.484 1421.97 292.768 1414.69 289.177C1407.76 285.752 1401.47 281.453 1394.12 278.83C1387.29 276.397 1384.49 276.87 1377.78 278.83C1369.58 281.24 1361.24 283.933 1353.36 287.429C1347.32 290.099 1341.11 291.351 1335.07 293.878C1330.41 295.839 1326.45 298.65 1321.5 300.02C1299.54 306.138 1279.46 316.958 1257.12 322.225C1250.14 323.879 1244.2 325.651 1237.41 322.769C1231.52 320.265 1226.69 316.792 1221.39 313.391C1208.27 305.004 1194.95 296.925 1180.19 291.303C1159.49 283.413 1139.17 274.248 1117.62 268.555C1100.47 264.019 1084.02 254.05 1068.18 246.42C1049.73 237.538 1034.18 223.955 1016.65 213.821C1008.88 209.309 1000.46 204.419 992.165 200.804C983.425 197.001 975.774 192.229 967.38 187.883C955.421 181.67 942.497 175.977 930.166 170.426C920.237 165.961 908.947 163.173 899.637 157.598C891.194 152.543 882.8 149.189 873.54 145.645C862.992 141.606 851.008 138.795 841.005 133.716C828.502 127.361 817.731 124.763 803.692 125.046C798.492 125.141 792.748 125.944 787.796 127.621C784.429 128.755 781.705 130.527 778.214 131.542C774.104 132.724 771.182 133.574 767.245 135.393C751.374 142.74 734.686 148.338 718.765 155.732C708.49 160.504 698.734 166.173 688.88 171.607C680.511 176.237 671.053 178.717 662.783 183.536C647.506 192.418 632.526 201.017 616.284 208.529C600.487 215.805 584.615 222.939 568.72 230.12C542.003 242.192 517.169 256.271 490.75 268.625C479.905 273.704 470.15 281.925 459.033 285.894C452.273 288.303 441.329 288.563 433.505 287.594C424.616 286.484 414.861 282.421 406.294 278.334C401.837 276.208 396.91 274.389 392.676 271.885C388.838 269.618 386.04 266.499 381.311 265.767C370.887 264.161 359.448 268.2 350.014 271.838C337.808 276.563 326.765 283.248 315.697 289.532C307.576 294.138 299.727 297.776 290.987 301.083C285.663 303.091 281.603 306.445 276.353 308.595C266.672 312.564 257.387 318.21 247.335 321.706C236.762 325.391 226.19 328.32 215.419 331.391C211.136 332.62 206.654 334.013 201.925 333.139C197.072 332.218 195.017 328.391 190.61 326.974C187.465 325.958 184.593 327.163 181.473 326.643C178.948 326.241 177.19 324.635 174.664 324.233C172.262 323.855 170.331 324.47 167.855 323.879C165.156 323.218 163.968 322.273 161.046 322.155C155.772 321.918 152.529 320.903 147.527 319.91C144.605 319.32 141.387 320.099 138.316 319.556C135.568 319.06 133.389 317.902 130.393 317.784C99.9137 316.556 72.7272 307.839 45.8378 294.138C41.1582 291.752 37.7166 287.807 33.2845 285.256C30.4124 283.602 27.1936 282.705 24.2719 281.145C17.3886 277.508 11.5452 272.287 4.83529 268.531C0.972727 266.358 -3.01364 264.302 -7 262.295V560.697C24.3957 559.847 56.5094 562.233 87.7318 564.666C129.23 567.879 170.183 573.69 211.829 575.296C241.64 576.43 271.302 576.832 301.039 579.099C326.418 581.037 351.748 583.541 377.176 585.029C433.926 588.336 490.775 592.21 547.574 594.1C613.956 596.297 680.56 596.533 746.992 597.1C828.551 597.809 910.16 598.919 991.62 603.596C1058.6 607.423 1125.27 614.345 1191.83 622.424C1251.53 629.652 1311.07 636.952 1371.34 636.999C1438.39 637.07 1505.02 632.723 1571.62 625.495C1646.99 617.297 1721.79 604.258 1796.52 591.856C1814.35 588.903 1832.17 585.832 1850 582.643V304.627Z" fill="#6B9594"/>
<path d="M784.499 157.48C789.946 153.039 793.883 147.086 799.182 142.291C805.892 136.244 815.003 130.858 824.511 127.291C817.999 125.59 811.339 124.857 803.713 125.023C798.513 125.117 792.769 125.92 787.817 127.598C784.449 128.732 781.726 130.503 778.235 131.519C774.124 132.7 771.203 133.551 767.266 135.37C751.395 142.716 734.707 148.315 718.786 155.709C708.51 160.481 698.755 166.15 688.901 171.583C680.532 176.213 671.073 178.694 662.804 183.513C647.527 192.395 632.547 200.994 616.304 208.506C600.507 215.781 584.636 222.916 568.74 230.097C542.024 242.168 517.19 256.247 490.771 268.602C479.926 273.681 470.171 281.902 459.053 285.87C457.073 286.579 454.696 287.075 452.195 287.429C452.74 287.477 453.334 287.5 454.027 287.5C460.49 287.382 464.204 289.39 469.923 290.76C478.441 292.768 482.65 290.004 490.821 286.98C500.725 283.295 510.43 279.398 520.186 275.523C526.995 272.83 533.606 272.925 540.316 269.641C556.955 261.515 573.346 245.239 592.559 244.129C595.778 243.94 599.443 244.861 602.538 244.011C605.633 243.16 609.867 240.656 612.962 239.404C618.136 237.325 621.529 233.38 626.53 231.065C629.848 229.53 633.265 229.057 636.682 227.829C641.782 225.986 646.165 222.774 651.191 220.719C657.282 218.215 664.512 217.86 669.86 213.962C673.153 211.553 675.703 208.128 678.997 205.624C686.202 200.167 692.441 195.371 700.463 191.119C719.38 181.032 741.342 179.52 761.15 171.134C769.915 167.355 777.219 163.41 784.499 157.48Z" fill="#77ACA9"/>
<path d="M350.042 271.791C337.836 276.516 326.793 283.201 315.725 289.484C307.604 294.091 299.755 297.729 291.014 301.036C285.691 303.044 281.63 306.398 276.381 308.548C266.7 312.517 257.415 318.163 247.363 321.659C237.533 325.084 227.678 327.871 217.675 330.706C220.622 330.21 223.42 329.431 224.608 329.123C228.446 328.155 232.383 329.525 236.122 328.746C240.207 327.919 244.49 326.454 248.526 325.415C253.8 324.045 258.158 320.95 263.159 319.863C270.018 318.375 278.436 319.793 284.948 316.816C287.944 315.446 289.628 314.123 292.748 312.942C295.793 311.808 298.888 311.005 301.884 309.753C309.56 306.54 314.908 304.792 320.603 298.863C324.218 295.107 327.659 292.13 332.314 289.626C336.672 287.288 342.788 285.445 346.799 282.658C351.454 279.421 353.905 273.303 358.659 270.515C363.14 267.893 368.984 266.594 374.059 265.437C365.74 265.98 357.297 268.98 350.042 271.791Z" fill="#77ACA9"/>
<path d="M1373.74 296.051C1381.02 289.98 1388.25 284.098 1397.36 280.98C1397.73 280.862 1398.1 280.743 1398.5 280.625C1397.09 279.987 1395.65 279.373 1394.16 278.854C1387.33 276.42 1384.53 276.893 1377.82 278.854C1369.63 281.263 1361.28 283.956 1353.41 287.452C1347.37 290.122 1341.15 291.374 1335.11 293.901C1330.46 295.862 1326.49 298.673 1321.54 300.043C1299.58 306.162 1279.5 316.981 1257.17 322.249C1254.49 322.886 1251.99 323.524 1249.52 323.926C1253.92 328.249 1256.05 330.257 1264.17 330.965C1279.97 332.359 1294.55 325.461 1309.11 320.524C1311.96 319.556 1316.02 317.831 1319.09 317.642C1322.98 317.406 1326.92 319.863 1330.83 320.123C1338.11 320.595 1343.03 317.406 1348.75 313.508C1353.85 310.036 1359.47 307.484 1364.75 304.248C1368.76 301.791 1370.17 299.027 1373.74 296.051Z" fill="#C3EBE8"/>
<path d="M-398.905 511.059C-390.833 506.163 -382.382 501.739 -374.278 497.1C-366.3 492.59 -355.389 490.228 -346.717 488.338C-334.167 485.589 -321.616 483.656 -309.003 481.294C-286.046 476.999 -269.05 456.983 -247.953 447.749C-236.286 442.637 -224.997 435.722 -214.055 430.568C-211.973 434.262 -209.419 431.9 -206.392 432.587C-204.658 432.973 -203.333 434.606 -201.599 435.379C-192.265 439.373 -181.607 442.079 -171.957 445.214C-161.835 448.479 -152.122 453.289 -142.126 456.983C-130.774 461.193 -121.156 468.365 -110.088 472.575C-102.678 475.366 -96.0555 481.809 -88.6766 485.202C-83.7889 487.479 -79.0273 490.142 -74.3603 493.02C-64.9317 498.775 -55.8185 504.359 -45.8223 508.74C-33.1142 514.323 -18.4826 519.521 -4.4816 516.815C3.52795 515.225 11.4114 508.01 18.6957 504.101C26.1692 500.064 34.1157 496.799 41.4946 492.461C48.5266 488.338 54.8964 483.098 62.3068 479.962C69.2442 477.042 72.0508 477.6 78.8305 479.962C87.1239 482.883 95.5434 486.104 103.521 490.357C109.639 493.578 115.914 495.081 122.032 498.131C126.73 500.493 130.767 503.886 135.749 505.561C157.98 512.949 178.288 526.049 200.898 532.406C207.961 534.382 213.984 536.529 220.827 533.05C226.787 530.001 231.674 525.834 237.035 521.711C250.311 511.575 263.807 501.825 278.723 494.995C299.661 485.46 320.221 474.379 342.042 467.506C359.418 462.009 376.036 449.982 392.086 440.748C410.754 430.01 426.49 413.602 444.243 401.318C452.127 395.863 460.641 389.936 469.029 385.598C477.89 381.002 485.615 375.247 494.098 369.964C506.207 362.447 519.262 355.575 531.749 348.874C541.777 343.505 553.224 340.112 562.653 333.369C571.198 327.27 579.681 323.189 589.078 318.894C599.768 314.041 611.876 310.605 621.999 304.505C634.644 296.817 645.555 293.682 659.745 294.025C665.011 294.154 670.845 295.099 675.827 297.161C679.233 298.535 681.976 300.683 685.508 301.885C689.67 303.303 692.634 304.334 696.608 306.567C712.658 315.458 729.56 322.202 745.643 331.178C756.049 336.934 765.919 343.806 775.884 350.378C784.366 355.961 793.921 358.968 802.277 364.766C817.729 375.504 832.896 385.899 849.325 394.961C865.313 403.766 881.364 412.4 897.446 421.076C924.502 435.679 949.603 452.688 976.343 467.635C987.317 473.777 997.187 483.699 1008.44 488.51C1015.29 491.43 1026.36 491.731 1034.27 490.571C1043.26 489.24 1053.13 484.3 1061.8 479.404C1066.31 476.827 1071.29 474.636 1075.58 471.63C1079.46 468.924 1082.3 465.101 1087.06 464.242C1097.62 462.309 1109.19 467.163 1118.72 471.587C1131.08 477.299 1142.24 485.374 1153.44 492.977C1161.67 498.517 1169.58 502.941 1178.44 506.936C1183.84 509.341 1187.93 513.422 1193.26 516.042C1203.04 520.852 1212.47 527.681 1222.62 531.891C1233.31 536.315 1244 539.88 1254.91 543.573C1259.26 545.034 1263.77 546.752 1268.57 545.678C1273.49 544.561 1275.54 539.923 1280.01 538.205C1283.2 537.002 1286.1 538.419 1289.25 537.818C1291.81 537.302 1293.57 535.413 1296.16 534.94C1298.59 534.511 1300.54 535.241 1303.06 534.511C1305.81 533.738 1306.97 532.578 1309.97 532.406C1315.3 532.105 1318.58 530.903 1323.62 529.7C1326.59 529.013 1329.84 529.915 1332.96 529.271C1335.73 528.669 1337.94 527.295 1340.97 527.123C1371.81 525.62 1399.31 515.097 1426.52 498.56C1431.25 495.683 1434.72 490.915 1439.23 487.822C1442.13 485.804 1445.38 484.73 1448.37 482.84C1455.34 478.416 1461.24 472.145 1468.02 467.592C1471.93 464.972 1475.93 462.481 1480 460.033V820.739C1448.21 819.708 1415.73 822.586 1384.17 825.55C1342.2 829.458 1300.76 836.46 1258.6 838.392C1228.42 839.767 1198.44 840.239 1168.32 842.988C1142.62 845.308 1117.02 848.357 1091.28 850.161C1033.86 854.155 976.343 858.837 918.857 861.114C851.69 863.777 784.303 864.034 717.073 864.765C634.549 865.624 551.963 866.955 469.533 872.625C401.767 877.263 334.285 885.639 266.961 895.389C206.574 904.108 146.313 912.956 85.3264 912.999C17.4974 913.085 -49.9217 907.845 -117.341 899.083C-193.589 889.161 -269.302 873.398 -344.888 858.408C-362.925 854.843 -380.963 851.149 -399 847.283V511.059H-398.905Z" fill="#345B5C"/>
<path d="M1827 401.796C1818.44 397.811 1809.85 393.881 1801.18 390.175C1781.78 381.898 1764.7 374.541 1743.49 371.057C1727.15 368.354 1712.13 362 1696.05 358.21C1687.44 356.176 1678.7 354.169 1670.35 352.386C1660.08 350.212 1650.04 357.764 1641.12 361.554C1628.78 366.794 1617.08 373.51 1604.61 378.665C1593.3 383.347 1584.39 389.673 1573.61 395.108C1565.23 399.344 1556.85 402.437 1548.85 407.425C1531.89 418.015 1512.37 424.871 1494.63 434.123C1455.75 454.383 1417.14 475.34 1377.93 495.126C1359.28 504.546 1341.18 515.052 1322.08 523.747C1303.93 531.996 1283.88 539.297 1266.8 549.274C1248.65 559.864 1230.55 569.367 1210.65 576.808C1194.72 582.771 1178.85 590.324 1162.41 594.755C1137.57 601.471 1111.3 616.018 1084.98 607.49C1074.79 604.174 1063.27 602.697 1053.65 598.238C1045.62 594.532 1037.63 591.104 1029.46 587.648C1011.93 580.235 993.151 576.919 975.058 571.039C962.325 566.887 948.141 563.347 936.622 556.325C931.558 553.231 929.752 549.218 924.185 546.682C919.18 544.397 913.584 541.861 908.431 539.966C895.787 535.284 884.149 528.791 871.505 524.081C860.667 520.04 849.444 517.421 838.517 513.519C829.426 510.286 820.217 506.469 810.918 503.849C804.256 501.982 797.297 502.706 790.308 502.651C772.985 502.539 756.432 510.119 740.086 515.331C727.146 519.455 714.383 525.419 702.005 530.853C694.75 534.03 686.962 536.009 679.618 538.963C672.274 541.917 666.115 546.849 658.949 550.054C628.152 563.765 596.882 575.442 565.404 587.704C558.179 590.519 551.575 594.114 544.587 597.291C538.812 599.91 532.239 600.774 526.257 602.92C517.166 606.153 508.193 610.082 499.073 612.646C490.811 614.959 482.49 616.046 475.146 612.646C469.224 609.887 464.071 606.404 457.349 604.592C438.516 599.52 421.371 590.909 402.774 585.168C391.847 581.768 380.861 579.483 370.053 576.306C361.85 573.882 353.529 569.005 345.475 565.967C330.254 560.226 313.049 554.123 300.05 544.62C291.906 538.656 285.036 534.838 275.501 530.825C272.362 529.488 269.372 527.147 266.085 526.227C262.827 525.307 259.807 526.227 256.579 525.809C254.092 525.502 252.049 524.025 249.768 523.635C247.547 523.273 246.363 524.666 244.468 524.499C239.759 524.081 235.466 523.078 230.669 523.106C222.851 523.162 216.336 523.44 209.052 521.211C201.027 518.758 193.209 516.334 185.273 513.547C175.59 510.147 168.601 504.657 159.422 500.7C149.028 496.213 138.96 491.113 129.691 484.731C124.45 481.136 118.912 480.077 113.316 477.263C108.37 474.782 104.402 471.466 99.161 469.432C73.813 459.566 47.932 449.506 21.5772 441.982C8.72556 438.303 -3.88922 433.9 -16.3559 429.19C-26.8386 425.233 -37.5582 419.158 -48.3666 416.287C-58.6124 413.556 -68.7102 413.027 -78.8376 410.017C-85.6483 408.011 -92.2222 403.775 -99.2107 402.911C-106.377 402.019 -114.224 405.112 -120.946 406.812C-127.964 408.596 -134.242 411.968 -141.26 413.863C-161.07 419.269 -182.214 424.676 -201.698 431.615C-216.267 436.798 -230.57 442.456 -244.547 449.005C-250.854 451.959 -257.073 455.219 -263.469 458.034C-270.547 461.155 -278.068 461.573 -285.293 464.193C-294.769 467.648 -303.712 472.386 -313.188 475.814C-322.131 479.074 -331.222 480.523 -339.75 484.759C-355.237 492.479 -371.998 497.133 -387.396 505.103C-389.587 506.246 -391.749 507.388 -393.94 508.531V992.126C-370.754 993.018 -347.538 993.324 -324.293 993.074C-208.657 991.736 -94.0878 975.071 21.4884 973.705C85.3026 972.953 148.909 982.344 212.279 987.751C267.24 992.433 322.377 995.387 377.219 1001.27C455.928 1009.71 535.792 1020.11 615.093 1021.5C689.213 1022.78 762.887 1018.43 836.711 1012.72C906.24 1007.34 975.769 1002.41 1045.18 995.721C1138.7 986.72 1232.03 975.099 1325.4 964.732C1411.19 955.201 1496.94 944.639 1582.11 930.983C1663.84 917.885 1745.15 902.586 1827 890.073V401.796Z" fill="#456E6B"/>
<path d="M1660.02 387.22C1669.94 377.021 1679.3 366.626 1689.49 356.705C1683.03 355.2 1676.57 353.751 1670.33 352.413C1660.05 350.239 1650.01 357.792 1641.1 361.582C1628.75 366.821 1617.05 373.537 1604.59 378.693C1593.28 383.375 1584.36 389.701 1573.58 395.135C1565.2 399.371 1556.82 402.464 1548.83 407.453C1531.86 418.043 1512.35 424.898 1494.61 434.15C1455.73 454.41 1417.11 475.367 1377.91 495.154C1359.25 504.573 1341.16 515.079 1322.06 523.774C1303.91 532.023 1283.86 539.325 1266.77 549.301C1248.62 559.891 1230.53 569.394 1210.63 576.835C1194.7 582.799 1178.82 590.351 1162.39 594.782C1149.21 598.349 1135.65 604.062 1121.91 607.434C1123.06 607.797 1124.37 609.357 1124.96 609.496C1130.08 610.528 1135.56 609.023 1140.65 609.942C1145.66 610.834 1149.75 614.401 1154.04 616.798C1163.46 622.009 1169.05 618.052 1178.5 614.039C1196.62 606.347 1212.2 594.197 1229.55 586.45C1262.48 571.791 1304.47 575.999 1328.99 545.985C1354.45 514.828 1398.58 520.681 1433.28 507.945C1446.1 503.235 1454.22 494.54 1465.08 486.877C1478.88 477.123 1491.68 465.92 1506.13 457.002C1522.89 446.663 1541.28 440.504 1560.29 434.986C1583.83 428.131 1605.33 417.903 1627.86 408.651C1641.01 403.217 1650.34 397.169 1660.02 387.22Z" fill="#5A8585"/>
<path d="M387.618 594.697C391.201 594.697 395.021 594.39 398.604 594.641C401.595 594.836 402.986 596.174 405.178 596.675C410.123 597.818 413.825 596.703 418.178 594.112C419.362 593.415 420.547 592.662 421.701 591.938C415.453 589.513 409.175 587.172 402.72 585.166C391.793 581.766 380.807 579.481 369.999 576.304C361.796 573.879 353.475 569.002 345.42 565.965C330.2 560.224 312.995 554.121 299.995 544.618C291.852 538.654 284.982 534.836 275.447 530.823C272.308 529.485 269.317 527.144 266.03 526.225C262.773 525.305 259.753 526.225 256.525 525.807C254.037 525.5 251.994 524.023 249.714 523.633C247.493 523.271 246.309 524.664 244.413 524.497C239.705 524.079 235.411 523.076 230.614 523.104C222.797 523.159 216.282 523.438 208.997 521.209C206.362 520.4 203.756 519.592 201.15 518.756C201.742 521.097 201.861 523.912 203.519 525.751C205.651 528.12 208.346 529.29 211.603 531.38C216.963 534.836 218.532 536.062 225.314 535.923C231.295 535.784 234.612 536.285 239.498 537.874C249.744 541.162 258.183 543.029 262.003 553.731C264.757 561.422 265.379 566.271 271.479 571.65C273.345 573.294 274.44 575.245 276.158 576.917C279.741 580.372 283.383 581.989 287.825 584.497C293.54 587.73 296.324 589.513 303.43 589.68C308.139 589.792 312.847 589.569 317.555 589.625C324.574 589.708 330.289 588.789 336.803 586.392C342.815 584.19 343.881 584.441 348.145 588.928C356.584 597.818 359.901 598.264 371.894 595.31C376.928 594.056 382.554 594.697 387.618 594.697Z" fill="#5A8585"/>
<path d="M652.219 577.336C662.347 579.176 671.378 583.412 681.683 580.262C690.863 577.448 698.503 571.373 706.084 565.966C713.753 560.504 722.341 552.757 730.869 548.799C737.414 545.762 744.52 546.375 751.154 543.672C763.443 538.655 774.162 529.96 784.882 522.575C792.877 517.058 799.836 509.728 807.298 503.123C801.761 502.26 796.046 502.733 790.301 502.678C772.978 502.566 756.425 510.146 740.079 515.358C727.138 519.482 714.375 525.446 701.997 530.88C694.742 534.057 686.954 536.036 679.611 538.99C672.267 541.944 666.107 546.876 658.941 550.081C628.145 563.792 596.874 575.469 565.397 587.731C558.171 590.546 551.568 594.141 544.579 597.318C538.805 599.937 532.231 600.801 526.249 602.947C517.158 606.18 508.186 610.109 499.065 612.673C495.926 613.565 492.758 614.261 489.649 614.596C490.122 615.348 490.655 616.045 491.396 616.575C500.457 622.929 526.486 611.865 535.163 608.158C537.383 607.211 539.101 605.539 541.529 605.344C543.365 605.204 543.632 607.239 545.704 607.629C552.012 608.855 558.852 606.375 564.864 604.926C580.143 601.247 594.476 595.98 608.838 590.295C624.206 584.22 634.63 574.131 652.219 577.336Z" fill="#5A8585"/>
<path d="M1102 809.429V658.137C1099.45 657.775 1096.91 657.412 1094.36 657.029C1087.24 655.963 1079.98 656.4 1072.83 655.121C1067.12 654.097 1060.86 651.806 1055.45 649.439C1051.37 647.649 1048.02 643.694 1043.93 642.287C1034.5 639.047 1023.62 642.724 1014.1 644.568C1007.95 645.762 1002.62 649.066 996.541 650.505C990.105 652.019 984.525 654.833 978.236 656.773C967.804 660.002 957.934 663.722 947.826 668.06C943.811 669.787 939.471 670.661 935.613 672.74C933.261 674.008 931.372 675.777 928.872 676.886C926.864 677.781 924.699 678.293 922.672 679.231C917.79 681.501 912.092 687.534 907.162 684.219C902.084 680.808 896.435 678.9 890.579 677.216C886.613 676.076 882.598 674.776 878.73 673.219C875.62 671.972 872.727 669.83 869.568 668.753C868.003 668.22 867.137 668.178 865.798 667.368C865.296 667.059 865.1 666.11 864.588 665.779C863.741 665.236 860.415 664.287 859.51 664.277C857.345 664.277 853.526 666.536 851.312 667.314C848.655 668.242 846.549 667.986 843.862 668.551C839.364 669.489 835.329 670.576 830.999 671.684C828.362 672.356 825.527 673.518 822.949 674.253C820.193 675.031 817.467 675.745 814.83 676.822C807.862 679.689 800.875 682.279 793.818 684.848C789.173 686.532 784.213 689.442 779.863 691.926C777.167 693.471 774.234 694.26 771.537 695.848C764.806 699.824 757.002 702.659 750.664 707.242C744.946 711.378 737.457 714.629 731.109 717.954C726.769 720.225 721.927 722.559 717.272 723.817C708.238 726.258 698.77 721.589 691.241 717.219C688.732 715.759 687.521 714.235 684.805 713.851C682.148 713.478 680.377 714.373 678.005 715.023C673.114 716.377 667.986 716.665 663.115 717.965C658.076 719.308 653.244 719.894 648.225 721.589C645.991 722.335 643.767 723.806 641.454 724.233C639.426 724.606 636.75 724.158 634.683 724.158C629.467 724.158 624.733 723.923 619.793 722.399C615.138 720.971 611.506 716.878 607.038 715.173C596.341 711.09 584.334 716.452 573.745 720.076C562.299 723.987 551.385 729.583 540.235 734.412C527.697 739.848 515.366 745.657 503.035 751.604C493.813 756.06 484.67 760.931 475.242 764.875C468.166 767.838 460.687 772.219 453.217 773.711C447.106 774.926 441.614 777.164 435.69 779.147C433.338 779.936 430.533 782.355 428.053 781.119L409.797 809.429H1102Z" fill="#214D4D"/>
<path d="M1092.2 812V788.193C1074.4 782.115 1056.2 778.253 1038.01 773.749C1030.74 771.955 1023.61 770.454 1016.28 769.005C1010.57 767.871 1004.72 766.265 999.607 763.211C993.338 759.463 988.043 750.72 988.663 742.878C989.264 735.205 994.657 728.75 994.982 721.15C995.168 716.794 992.442 714.569 989.264 712.385C988.014 711.525 986.38 710.811 985.908 709.089C984.992 705.814 987.984 702.371 989.362 699.842C990.277 698.152 990.937 696.367 991.921 694.73C995.602 688.631 1001.88 683.761 1006.9 678.985C1012.31 673.841 1017.44 668.393 1022.92 663.313C1027.74 658.831 1032.18 654.055 1036.77 649.289C1036.9 649.153 1037.02 649.027 1037.14 648.901C1036.17 648.292 1035.16 647.767 1034.11 647.41C1024.68 644.219 1013.8 647.841 1004.28 649.657C998.131 650.832 992.807 654.086 986.725 655.503C980.288 656.994 974.708 659.765 968.42 661.676C957.988 664.856 948.117 668.519 938.01 672.792C933.994 674.492 929.654 675.353 925.796 677.4C923.444 678.649 921.555 680.391 919.055 681.483C917.047 682.365 914.882 682.868 912.855 683.792C912.589 683.908 912.324 684.044 912.058 684.191C909.096 687.025 905.976 689.649 902.718 691.864C896.184 696.325 889.511 700.503 883.006 705.027C875.487 710.265 869.385 717.277 861.414 721.707C856.483 724.446 851.819 727.69 846.908 730.45C841.042 733.746 835.128 736.685 830.207 741.535C823.623 748.022 817.698 755.254 811.203 761.836C806.981 766.118 802.1 769.341 797.268 772.784C788.027 779.365 778.835 786.251 769.21 792.171C763.984 795.383 760.599 792.885 755.225 792.119C754.408 792.003 750.905 792.329 751.358 790.355C751.584 789.379 753.533 788.907 754.153 788.476C755.225 787.721 756.2 786.535 756.859 785.348C758.256 782.84 759.674 781.097 761.642 779.008C764.063 776.447 767.242 773.582 769.131 770.579C770.017 769.173 770.214 767.693 770.174 766.045C770.135 764.155 770.804 763.746 771.129 762.245C771.611 759.999 771.513 758.361 772.654 756.157C773.432 754.666 774.013 753.144 774.672 751.654C777.939 744.338 787.062 741.21 793.233 737.168C797.12 734.628 800.693 732.34 803.773 728.792C806.794 725.307 809.383 721.129 812.581 717.854C813.713 716.7 815.1 715.828 816.212 714.642C818.24 712.469 819.933 709.509 821.655 707.053C824.528 702.928 827.254 699.002 830.414 695.118C834.498 690.09 838.09 684.747 842.391 679.877C845.432 676.434 848.512 673.012 851.317 669.349C850.618 669.181 849.998 669.055 849.683 669.055C847.518 669.055 843.699 671.28 841.485 672.046C838.828 672.96 836.722 672.708 834.035 673.264C829.538 674.188 825.503 675.258 821.173 676.35C818.535 677.011 815.701 678.155 813.122 678.88C810.367 679.646 807.641 680.349 805.003 681.409C798.035 684.233 791.048 686.784 783.992 689.313C779.347 690.972 774.387 693.838 770.037 696.283C767.34 697.805 764.407 698.582 761.711 700.146C754.979 704.061 747.175 706.854 740.837 711.367C735.119 715.44 727.63 718.641 721.282 721.916C716.942 724.152 712.1 726.451 707.445 727.69C706.796 727.858 706.146 727.994 705.487 728.089C703.332 730.461 701.048 732.697 698.706 734.922C691.984 741.293 685.332 747.759 678.974 754.53C675.392 758.351 672.292 762.633 669.084 766.811C666.987 769.53 660.187 776.143 656.408 774.022C654.912 773.183 655.148 771.451 654.016 770.548C652.658 769.446 652.038 770.705 650.857 771.556C646.399 774.81 641.823 777.392 637.276 780.457C633.251 783.165 629.078 785.873 625.083 788.403C623.656 789.306 622.79 789.956 621.097 790.355C619.709 790.681 617.977 790.681 616.678 791.048C615.802 791.29 615.074 792.077 614.149 791.919C613.362 790.208 616.137 788.529 616.963 787.248C617.485 786.44 618.341 785.411 618.794 784.603C619.355 783.595 619.02 783.469 619.424 782.388C620.054 780.719 620.998 778.641 622.091 777.36C623.597 775.586 625.998 774.537 627.602 772.815C630.85 769.32 632.907 764.964 635.879 761.269C637.197 759.631 639.313 758.519 640.455 756.692C641.4 755.181 641.459 753.312 641.99 751.643C643.791 746.007 649.411 741.766 653.751 738.354C657.795 735.174 662.687 731.773 665.688 727.574C667.174 725.485 668.877 723.354 670.904 722.042C672.597 720.951 674.112 719.408 675.618 718.012C675.412 717.97 675.215 717.917 674.998 717.886C672.341 717.518 670.57 718.4 668.198 719.04C663.307 720.373 658.179 720.657 653.308 721.937C648.269 723.26 643.437 723.837 638.418 725.506C636.184 726.241 633.96 727.69 631.647 728.11C631.548 728.131 631.45 728.131 631.352 728.152C628.675 729.716 626.234 731.29 623.065 732.161C621.55 732.571 620.073 732.193 618.548 732.592C616.757 733.064 615.556 734.04 614.031 735.048C607.909 739.1 601.011 740.937 595.076 745.072C587.488 750.363 581.298 757.322 574.114 763.2C572.53 764.491 570.709 764.88 569.105 766.013C568.239 766.622 567.884 767.388 567.127 768.018C565.089 769.708 562.383 771.346 560.08 772.616C557.266 774.169 553.181 776.636 549.934 775.502C548.615 775.041 546.981 772.994 546.529 771.629C545.899 769.75 546.637 768.942 547.139 767.43C548.074 764.628 549.875 762.539 551.715 760.293C554.018 757.469 557.088 755.013 559.903 752.829C562.649 750.699 565.139 747.854 567.983 745.849C573.937 741.661 576.683 734.723 581.525 729.464C582.666 728.225 583.099 728.162 584.447 727.343C585.835 726.504 586.642 725.611 587.882 724.614C589.565 723.26 591.563 722.693 593.324 721.539C594.712 720.625 596.119 719.943 597.556 719.334C597.448 719.292 597.34 719.24 597.222 719.198C586.524 715.178 574.518 720.457 563.928 724.026C552.483 727.879 541.569 733.389 530.418 738.144C517.88 743.498 505.549 749.219 493.218 755.076C483.996 759.463 474.854 764.26 465.426 768.144C458.35 771.062 450.87 775.377 443.401 776.846C437.289 778.043 431.798 780.247 425.873 782.199C423.521 782.976 420.716 785.359 418.236 784.141L400 812H1092.2Z" fill="#1B3C3E"/>
<path d="M1440 649.823C1432.72 649.823 1425.44 649.823 1418.19 649.78C1400.26 649.694 1383 652.211 1365.1 650.554C1356.84 649.801 1349.09 650.103 1340.79 649.909C1332.6 649.694 1324.44 648.639 1316.25 648.188C1299.8 647.241 1283.32 645.261 1267.04 643.54C1249.34 641.668 1231.68 639.645 1213.64 641.237C1198.37 642.593 1182.43 643.626 1167.5 646.057C1132.81 651.695 1101.46 663.013 1072.3 676.031C1061.65 680.786 1052.78 686.962 1042.17 691.717C1034.51 695.138 1027.3 698.473 1020.15 702.368C1005.56 710.351 989.884 717.516 975.288 725.456C943.905 742.519 913.533 760.271 881.038 776.388C864.79 784.435 846.689 790.352 829.531 797.475C819.418 801.67 808.766 804.468 797.946 807.136H1439.96V649.823H1440Z" fill="#021713"/>
<path d="M679.915 794.878C670.394 790.941 661.523 786.185 652.619 781.688C643.488 777.062 634 773.124 625.551 767.874C605.111 755.222 585.289 742.118 565.629 728.949C552.826 720.364 537.294 712.682 522.768 705.474C515.912 702.074 510.712 697.814 503.368 694.78C500.054 693.403 496.804 691.94 493.555 690.498C486.471 687.335 478.899 685.097 471.491 682.321C454.3 675.888 432.756 671.885 413.681 668.679C402.308 666.764 390.025 665.301 378.424 664.182C366.563 663.042 354.54 661.708 342.614 660.89C331.338 660.115 320.452 657.749 309.079 657.921C304.075 658.007 300.143 657.426 295.301 656.78C289.322 655.963 283.278 656.823 277.298 656.35C266.737 655.489 252.634 654.005 243.926 649.701C235.964 645.764 227.451 639.76 221.894 634.316C218.059 630.551 215.59 626.247 211.365 622.654C207.661 619.491 203.274 616.5 199.18 613.552C190.276 607.204 180.56 601.567 170.031 596.446C143.515 583.579 115.374 577.747 83.4639 573.874C52.1709 570.087 20.6179 568.581 -11 568V806.347H715.888C703.442 803.27 691.419 799.634 679.915 794.878Z" fill="#021713"/>
</svg>
